<svg xmlns="http://www.w3.org/2000/svg" width="182" height="32" viewBox="0 0 182 32">
    <path fill="#EA1D25" fill-rule="nonzero" d="M24 14.857c-.076-1.143-.381-2.286-.99-3.276l-5.181-9.067c-.381-.685-.686-1.447-.839-2.21l-.228.382a7.227 7.227 0 0 0 0 7.238l4.19 7.238a7.227 7.227 0 0 1 0 7.238l-.228.381c-.153-.762-.457-1.524-.838-2.21l-3.81-6.628-2.438-4.267c-.38-.686-.686-1.447-.838-2.21l-.229.382c-1.295 2.21-1.295 4.952 0 7.238l4.19 7.238a7.227 7.227 0 0 1 0 7.238l-.228.38c-.152-.761-.457-1.523-.838-2.209l-5.257-9.066c-.686-1.22-.99-2.59-.99-3.962C3.886 16.152 0 19.276 0 22.857c0 5.029 7.467 9.067 16.686 9.067 9.219 0 16.685-4.038 16.685-9.067.077-3.428-3.733-6.552-9.371-8zm15.771 15.467c.077-1.295.229-2.134.61-3.2 1.752.838 4.038 1.219 5.714 1.219 2.895 0 4.572-.914 4.572-2.82 0-1.828-1.22-2.666-4.115-3.961l-1.6-.61C41.981 19.657 40 17.981 40 14.705c0-3.581 2.514-5.867 7.543-5.867 2.057 0 3.962.305 5.714.914a11.954 11.954 0 0 1-.61 3.124c-1.676-.61-3.733-.914-5.18-.914-2.743 0-3.962 1.067-3.962 2.743 0 1.6 1.219 2.59 3.428 3.505l1.677.685c3.961 1.676 5.638 3.505 5.638 6.553 0 3.58-2.743 6.095-8.077 6.095-2.514 0-4.647-.381-6.4-1.22zm31.315-15.01V31.01h-3.2l-.153-1.905c-.914 1.371-2.21 2.285-4.419 2.285-4.114 0-6.933-3.047-6.933-8.304 0-5.486 2.971-8.686 8.762-8.686 2.286.076 4.19.305 5.943.914zM67.657 27.43V17.6c-.686-.152-1.524-.152-2.514-.152-3.581 0-5.257 2.21-5.257 5.714 0 3.2 1.295 5.486 4.343 5.486 1.447-.077 2.514-.534 3.428-1.22zm21.105-6.934V31.01h-3.429v-9.905c0-2.515-.838-3.657-4.266-3.657-.838 0-1.753.076-2.743.228V31.01h-3.429V15.314c2.21-.533 4.648-.914 6.248-.914 5.79.076 7.619 2.286 7.619 6.095zm9.6 8c.99 0 1.98-.152 2.667-.457a37.643 37.643 0 0 1-.381 2.895c-.915.381-1.981.534-2.896.534-3.352 0-5.485-1.524-5.485-5.334V9.6c1.066-.381 2.362-.533 3.428-.533v5.943h5.486c-.076 1.066-.152 2.057-.305 2.971h-5.18v7.695c0 1.981.99 2.82 2.666 2.82zm18.514-13.18V31.01h-3.2l-.152-1.905c-.914 1.371-2.21 2.285-4.42 2.285-4.114 0-6.933-3.047-6.933-8.304 0-5.486 2.972-8.686 8.762-8.686 2.286.076 4.115.305 5.943.914zm-3.505 12.114V17.6c-.685-.152-1.523-.152-2.514-.152-3.58 0-5.257 2.21-5.257 5.714 0 3.2 1.295 5.486 4.343 5.486 1.447-.077 2.59-.534 3.428-1.22zm21.181-6.934V31.01h-3.504v-9.905c0-2.515-.838-3.657-4.267-3.657-.838 0-1.752.076-2.743.228V31.01h-3.428V15.314c2.209-.533 4.647-.914 6.247-.914 5.79.076 7.695 2.286 7.695 6.095zM152 9.067V31.01h-3.2l-.152-1.981c-.915 1.447-2.21 2.361-4.496 2.361-4.114 0-6.933-3.047-6.933-8.304 0-5.486 2.971-8.686 8.762-8.686.914 0 1.752.076 2.59.229V9.448c1.067-.305 2.286-.381 3.429-.381zm-3.429 18.362v-9.677c-.914-.152-1.828-.304-2.742-.304-3.429 0-5.029 2.133-5.029 5.714 0 3.2 1.295 5.486 4.343 5.486 1.371-.077 2.514-.534 3.428-1.22zm20.8-3.124h-11.047c.457 2.819 2.057 4.114 5.18 4.114 1.906 0 3.81-.38 5.486-1.219-.152.914-.304 2.133-.533 3.124-1.6.686-3.2.99-5.105.99-5.79 0-8.533-3.2-8.533-8.533 0-4.648 2.133-8.381 7.62-8.381 4.951 0 7.085 3.2 7.085 7.162 0 1.067 0 1.828-.153 2.743zm-11.047-2.895h7.771c0-2.591-1.371-4.115-3.733-4.115-2.514.076-3.81 1.448-4.038 4.115zm23.162-6.781c0 1.066-.153 2.285-.305 2.971-.838-.076-1.6-.152-2.59-.152-.839 0-1.677.076-2.515.152v13.41h-3.428V15.314c1.447-.533 3.962-.914 5.866-.914.99.076 2.21.076 2.972.229z"/>
</svg>
