<?xml version="1.0" encoding="UTF-8"?>
<svg width="93px" height="40px" viewBox="0 0 93 40" version="1.1" xmlns="http://www.w3.org/2000/svg" xmlns:xlink="http://www.w3.org/1999/xlink">
    <!-- Generator: Sketch 50.2 (55047) - http://www.bohemiancoding.com/sketch -->
    <title>Logos / Zap negative Copy</title>
    <desc>Created with Sketch.</desc>
    <defs>
        <polygon id="path-1" points="0.126137889 0.375449419 22.9220766 0.375449419 22.9220766 28.0853017 0.126137889 28.0853017"></polygon>
        <polygon id="path-3" points="0 0.361704643 29.776944 0.361704643 29.776944 35.4819488 0 35.4819488"></polygon>
    </defs>
    <g id="Header-&amp;-Footer" stroke="none" stroke-width="1" fill="none" fill-rule="evenodd">
        <g id="[ZAP]-Footer---Montserrat" transform="translate(-120.000000, -168.000000)">
            <g id="Footer_1280" transform="translate(80.000000, 152.000000)">
                <g id="Breadcrumb">
                    <g id="Logos-/-1.2.-Zap-negative" transform="translate(40.000000, 16.000000)">
                        <g id="Page-1">
                            <path d="M49.1725243,12.520853 L33.8888454,12.520853 C33.4736917,14.2698014 33.2048098,15.9872601 32.7948186,17.736634 L39.1597916,17.736634 L29.5174706,29.768207 L29.3703384,30.4741693 L45.3733302,30.4741693 L46.5749098,24.8524281 L39.6493718,24.8524281 L49.0245317,13.2314963 L49.1725243,12.520853 Z" id="Fill-1" fill="#FFFFFF"></path>
                            <path d="M61.8263228,21.3132971 C61.2240273,23.5456531 59.9828683,25.1873666 58.0576737,25.1873666 C55.9513603,25.2231116 55.2350588,23.7724632 55.8007864,21.39117 C56.5923748,18.7056194 58.3235442,17.2519923 60.5843034,17.1392256 C61.298884,17.1026296 62.0113136,17.2149708 62.8046228,17.4017806 L61.8263228,21.3132971 Z M67.3222694,24.7397039 L69.6944533,13.7523935 C67.4354149,12.745578 64.8012324,12.1489781 62.0874609,12.1119566 C55.9513603,11.9991898 50.9785504,15.0566579 49.4792648,21.2375519 C48.3813661,26.4150347 49.9645429,30.6622983 55.612354,30.7725118 C57.7578166,30.7725118 60.1300005,29.7303769 61.5238844,27.7575973 C60.8088736,31.4061333 65.668538,30.9227257 68.03685,30.4359138 L68.7544421,27.0078048 C67.1355578,27.0078048 67.0215518,26.1916289 67.3222694,24.7397039 Z" id="Fill-3" fill="#FFFFFF"></path>
                            <g id="Group-7" transform="translate(69.263984, 11.553442)">
                                <mask id="mask-2" fill="white">
                                    <use xlink:href="#path-1"></use>
                                </mask>
                                <g id="Clip-6"></g>
                                <path d="M16.7692838,8.75295448 C16.6565685,11.4368029 15.0376842,13.890437 12.2163599,13.890437 C10.7463286,13.890437 10.0691764,12.627875 10.1810313,10.9840338 C10.2933164,8.45805881 11.7611966,5.88655157 14.2830939,5.88655157 C16.1299901,5.77378483 16.8845803,7.00570829 16.7692838,8.75295448 M16.3937095,0.375449419 C14.2830939,0.375449419 12.0262066,1.45120158 10.6310321,3.35461907 L10.6706115,3.20483079 C11.4609092,-0.147532941 6.79225859,0.410768814 4.49062931,0.893325361 L3.74249224,4.35845584 C5.32351796,4.35845584 5.05936836,5.06654587 4.75779039,6.44144904 L0.126137889,28.0854293 L6.07681756,28.0854293 L8.52643946,16.7232227 C8.90115331,18.5857888 10.9339007,19.2189847 12.8173648,19.2189847 C18.1631677,19.2189847 21.7016538,14.6742722 22.7225447,9.90828166 C23.5106914,5.251228 22.0798094,0.483960812 16.3937095,0.375449419" id="Fill-5" fill="#FFFFFF" mask="url(#mask-2)"></path>
                            </g>
                            <g id="Group-10" transform="translate(0.000000, 0.064000)">
                                <mask id="mask-4" fill="white">
                                    <use xlink:href="#path-3"></use>
                                </mask>
                                <g id="Clip-9"></g>
                                <path d="M23.4984734,33.6168295 C22.6634337,34.3691752 21.8098949,34.7508799 20.9645302,34.7508799 L20.9636697,34.7508799 C19.6472238,34.7508799 18.7605588,33.848746 18.520501,33.5717228 C18.3699271,33.3985301 18.1285787,33.073847 17.8218382,32.6644824 C16.6314441,31.0708543 14.6404273,28.4036018 13.0994112,27.8210445 C12.8060072,27.710831 12.4781864,27.6542348 12.1262737,27.6542348 C11.9494569,27.6542348 11.7679079,27.6704052 11.5842077,27.6967883 C11.4469704,25.7916687 11.136358,24.4252762 10.6304298,23.5427169 C9.44993057,21.5022772 6.34595762,20.6316328 3.42396395,20.0580118 C3.12539746,19.5984341 2.77993797,19.1686439 2.43619931,18.7482155 L2.30670578,18.5890654 C1.85111224,18.0269339 1.38003111,17.4469298 1.04317583,16.8218191 C0.898624907,16.5516045 0.802687836,16.2933048 0.758806306,16.0562819 C0.719657097,15.8354293 0.739877018,15.5064908 0.806129525,15.2771275 C1.07329061,14.3643552 1.89757504,13.8520112 2.94212754,13.9358416 C3.94581,14.020523 5.02779086,14.5711651 6.15967622,15.5737253 C6.44490617,15.8239398 6.72841527,16.1013886 7.0170869,16.3847948 C8.15757648,17.497994 9.44993057,18.760556 11.2206794,18.760556 C11.4581559,18.760556 11.7007949,18.7371516 11.943434,18.6920449 C14.3121762,18.2443822 14.9811544,15.3111703 15.7576854,11.9162531 C16.6817788,7.86856535 17.7293428,3.28087388 21.8236617,1.59447917 C23.149142,1.04851793 24.4776338,0.942559745 25.6198443,1.30171118 C26.7741006,1.66426689 27.7313203,2.5502305 28.3125354,3.79321786 C29.3308451,5.98940335 29.2568487,8.96261551 28.1288353,11.1928438 C28.0432233,11.3626322 27.9455654,11.5336972 27.8427449,11.7051878 C27.4869604,11.769018 27.1298852,11.8307206 26.766787,11.891572 C23.1534441,12.5039167 19.0595555,13.197113 17.2569711,17.052459 C15.2801511,21.2941906 19.3529594,25.8235838 24.0693635,31.0674501 L24.5374332,31.5883048 C24.4260085,32.3895869 24.0809792,33.0891663 23.4984734,33.6168295 M28.7900697,11.519229 C30.0320891,9.06389281 30.1073761,5.911956 28.9840949,3.48768383 C28.3133958,2.05405684 27.1982887,1.03064546 25.843554,0.605536125 C24.5348519,0.193618368 23.0261017,0.306385109 21.5392922,0.920006397 C17.0926304,2.75065742 15.9530013,7.74303256 15.0366517,11.7554009 C14.3181992,14.9005291 13.6974046,17.6158672 11.8053362,17.973742 C11.6082996,18.0116146 11.4116931,18.0294871 11.2206794,18.0294871 C9.75365959,18.0294871 8.62650656,16.9286283 7.5372121,15.8643656 C7.23907582,15.5728742 6.94481144,15.2864893 6.6518377,15.0281896 C5.39863282,13.9183947 4.17167081,13.30605 3.00579878,13.2077514 C1.60158981,13.0856229 0.461530449,13.8281813 0.0958510295,15.0749984 C-0.00223709697,15.4162774 -0.0276195508,15.851174 0.0313193674,16.18607 C0.0893978633,16.4984126 0.210287177,16.8277766 0.390975831,17.1660768 C0.761817783,17.851188 1.25397926,18.4584262 1.74140842,19.0592815 L1.86186752,19.2069421 C2.21679166,19.6422642 2.56139074,20.0677991 2.84274878,20.5124831 L2.88318862,20.5758878 C2.96320789,20.7048248 3.03462293,20.8316342 3.09829417,20.9580181 C3.10302649,20.9665288 3.10646818,20.9763161 3.11034008,20.9839757 C3.16884878,21.0997212 3.2200439,21.2150411 3.26478585,21.3290845 C3.27984324,21.3707869 3.29231936,21.4137659 3.30694654,21.4546173 C3.33577068,21.5380221 3.36545525,21.6214269 3.38868664,21.7052573 C3.4218129,21.8307901 3.44934641,21.9593016 3.46870591,22.0907919 C3.63003506,23.2529276 2.99719456,24.3657013 2.26626593,25.5159221 C1.61449615,26.5486952 0.803548258,27.8338106 0.856464221,29.2244585 C0.927018838,30.9580876 2.01115076,31.7108588 3.06903981,31.8712854 C3.22348559,31.8951154 3.37750116,31.9070304 3.5267844,31.9070304 C3.57582847,31.9070304 3.62100063,31.9057538 3.66402174,31.9040516 L3.66445195,31.9040516 C3.69155525,31.9023495 3.71951897,31.8951154 3.74619205,31.8921367 C4.24609733,31.8432001 4.81999891,31.6393689 5.44122371,31.347452 C6.07019231,31.0534074 6.74562371,30.6729792 7.44084482,30.2806361 C7.69854126,30.1351032 7.95881896,29.9904213 8.21866645,29.8465905 C8.32449838,29.7882922 8.43162094,29.7291429 8.53917371,29.6708446 C8.60714706,29.6346741 8.6746902,29.5989292 8.74223334,29.5619077 C8.88936553,29.4848859 9.03649772,29.4074385 9.18362991,29.3333955 C9.22191869,29.3138209 9.26063769,29.2933952 9.30021711,29.2742461 C9.69515088,29.0780745 10.0875034,28.8989243 10.4673798,28.754668 C10.4807163,28.7495616 10.4936227,28.7457318 10.5069592,28.7406254 C10.6700092,28.6797739 10.8304779,28.6261565 10.9879352,28.5793477 C11.0412814,28.5631773 11.0929067,28.5499858 11.1458226,28.5359431 C11.4908519,28.4431765 11.8216843,28.3853038 12.1262737,28.3853038 C12.3882723,28.3853038 12.6270394,28.4248785 12.836122,28.5031769 C14.1749389,29.0104145 16.160363,31.6695819 17.2272865,33.098528 C17.5490844,33.5278927 17.8037693,33.8678951 17.959936,34.0491729 C18.2524795,34.3844944 19.3318791,35.4810978 20.9636697,35.4819488 L20.9645302,35.4819488 C22.0009087,35.4819488 23.0209391,35.0355628 23.9962276,34.1555566 C24.5666875,33.6402339 24.9448431,32.995123 25.1487631,32.268735 L25.1633903,32.2849053 L25.1732852,32.1844791 C25.368601,31.4231972 25.3642989,30.5751062 25.1474725,29.6746744 C25.1070327,29.4874391 25.0575584,29.303608 24.9968986,29.1210536 C24.7396324,28.3427503 24.3494309,27.6304049 23.9721358,26.9414639 L23.762623,26.5563549 C23.342737,25.7750728 22.9108051,24.9308117 22.5894374,24.0563375 C22.2478498,23.1312247 22.0843696,22.3031338 22.0899623,21.5256816 C22.0955551,20.7482294 22.2956032,19.956309 22.682363,19.1737503 C23.395653,17.7273573 24.5055976,16.6018176 25.6813645,15.4086178 C26.5736222,14.5039306 27.4942739,13.5698816 28.2187494,12.489023 C28.2226213,12.4817889 28.2252026,12.476257 28.2295047,12.4694484 C28.2307953,12.4668952 28.2338068,12.4656186 28.2346672,12.4630654 C28.2867228,12.384767 28.3379179,12.3068941 28.3873922,12.2277446 L28.825347,11.5273142 L28.7810353,11.5353994 C28.7831863,11.5298674 28.7874885,11.5251865 28.7900697,11.519229" id="Fill-8" fill="#FFFFFF" mask="url(#mask-4)"></path>
                            </g>
                        </g>
                    </g>
                </g>
            </g>
        </g>
    </g>
</svg>